<?xml version="1.0" encoding="UTF-8"?>
<!DOCTYPE svg PUBLIC "-//W3C//DTD SVG 1.1//EN" "http://www.w3.org/Graphics/SVG/1.1/DTD/svg11.dtd">
<!-- Creator: CorelDRAW 2020 (64-Bit) -->
<svg xmlns="http://www.w3.org/2000/svg" xml:space="preserve" width="591px" height="591px" version="1.1" style="shape-rendering:geometricPrecision; text-rendering:geometricPrecision; image-rendering:optimizeQuality; fill-rule:evenodd; clip-rule:evenodd"
viewBox="0 0 591 591"
 xmlns:xlink="http://www.w3.org/1999/xlink"
 xmlns:xodm="http://www.corel.com/coreldraw/odm/2003">
 <defs>
  <style type="text/css">
   <![CDATA[
    .str1 {stroke:#373435;stroke-width:11.82;stroke-miterlimit:2.61313}
    .str4 {stroke:#001C33;stroke-width:2;stroke-miterlimit:2.61313}
    .str3 {stroke:#373435;stroke-width:0.59;stroke-miterlimit:2.61313}
    .str2 {stroke:#373435;stroke-width:11.82;stroke-linecap:round;stroke-miterlimit:2.61313}
    .str0 {stroke:#001C33;stroke-width:47.28;stroke-linecap:round;stroke-miterlimit:2.61313}
    .fil1 {fill:none}
    .fil2 {fill:#001C33}
    .fil3 {fill:#373435;fill-rule:nonzero}
    .fil0 {fill:#001C33;fill-rule:nonzero}
   ]]>
  </style>
 </defs>
 <g id="Layer_x0020_1">
  <metadata id="CorelCorpID_0Corel-Layer"/>
  <g id="_1081088048">
   <path class="fil0" d="M420.79 95.77l73.39 0c13.06,0 23.64,10.59 23.64,23.64 0,13.06 -10.58,23.64 -23.64,23.64l-73.39 0 0 -47.28z"/>
   <path class="fil0" d="M420.79 296.62c-27.64,0 -52.75,-11.29 -70.94,-29.48 -18.19,-18.19 -29.48,-43.3 -29.48,-70.94 0,-27.65 11.29,-52.76 29.48,-70.95 18.19,-18.19 43.3,-29.48 70.94,-29.48l0 47.28c-14.59,0 -27.87,5.99 -37.51,15.63 -9.64,9.64 -15.63,22.93 -15.63,37.51 0,14.59 5.99,27.88 15.63,37.52 9.64,9.64 22.92,15.63 37.51,15.63l0 47.28z"/>
   <line class="fil1 str0" x1="420.79" y1="426.54" x2="244.01" y2= "426.54" />
   <path class="fil0" d="M420.79 450.18c27.64,0 52.76,-11.29 70.95,-29.48 18.18,-18.19 29.47,-43.3 29.47,-70.94 0,-27.64 -11.29,-52.75 -29.47,-70.94 -18.19,-18.19 -43.31,-29.48 -70.95,-29.48l0 47.28c14.59,0 27.87,5.98 37.52,15.63 9.64,9.64 15.62,22.92 15.62,37.51 0,14.59 -5.98,27.87 -15.62,37.51 -9.65,9.64 -22.93,15.63 -37.52,15.63l0 47.28z"/>
   <path class="fil2" d="M422.57 161.29c4.74,0 9.09,1.71 12.46,4.54 -2.56,4.35 -4.02,9.43 -4.02,14.85 0,5.42 1.46,10.49 4.02,14.85 -3.37,2.83 -7.72,4.54 -12.46,4.54 -10.71,0 -19.39,-8.68 -19.39,-19.39 0,-10.71 8.68,-19.39 19.39,-19.39z"/>
   <circle class="fil2" cx="460.42" cy="180.68" r="19.39"/>
   <path class="fil0" d="M496.96 36.35c22.86,0 43.64,9.34 58.68,24.38 15.04,15.04 24.38,35.82 24.38,58.68 0,22.87 -9.34,43.64 -24.38,58.68 -15.04,15.05 -35.82,24.38 -58.68,24.38l0 -47.28c9.81,0 18.75,-4.03 25.25,-10.53 6.5,-6.49 10.53,-15.43 10.53,-25.25 0,-9.81 -4.03,-18.75 -10.53,-25.25 -6.5,-6.49 -15.44,-10.53 -25.25,-10.53l0 -47.28z"/>
  </g>
  <g id="_1081101248">
   <path class="fil0" d="M173.46 36.35c-13.05,0 -23.64,10.59 -23.64,23.64 0,13.06 10.59,23.64 23.64,23.64l0 -47.28z"/>
   <path class="fil0" d="M56.42 324.8c0,-13.06 -10.59,-23.64 -23.64,-23.64 -13.06,0 -23.64,10.58 -23.64,23.64l47.28 0z"/>
   <path class="fil0" d="M173.46 202.49c-16.01,0.88 -28.76,14.33 -28.76,30.39 0,16.69 13.74,30.44 30.44,30.44l99.39 0 0 47.28 -99.39 0c-42.8,0 -77.72,-34.93 -77.72,-77.72 0,-42.15 33.92,-76.8 76.04,-77.7l0 47.31z"/>
   <path class="fil0" d="M274.53 263.32c16.93,0 32.3,6.91 43.44,18.04 11.13,11.13 18.04,26.5 18.04,43.44l0 0 -47.28 0c0,-3.88 -1.61,-7.43 -4.19,-10.01 -2.59,-2.59 -6.13,-4.19 -10.01,-4.19l0 -47.28z"/>
   <path class="fil0" d="M336.01 324.8c0,16.93 -6.91,32.31 -18.04,43.44 -11.13,11.13 -26.51,18.04 -43.44,18.04l-203.91 0c-16.93,0 -32.31,-6.91 -43.44,-18.04 -11.13,-11.13 -18.04,-26.51 -18.04,-43.44l47.28 0c0,3.88 1.6,7.42 4.19,10.01 2.58,2.58 6.13,4.19 10.01,4.19l203.91 0c3.88,0 7.42,-1.61 10.01,-4.19 2.58,-2.59 4.19,-6.13 4.19,-10.01l47.28 0z"/>
   <path class="fil0" d="M173.46 36.35l69.55 0c22.87,0 43.64,9.34 58.68,24.38 15.05,15.04 24.38,35.82 24.38,58.68 0,22.87 -9.33,43.64 -24.38,58.68 -15.04,15.05 -35.81,24.38 -58.68,24.38l-69.55 0 0 -47.28 69.55 0c9.82,0 18.76,-4.03 25.26,-10.53 6.49,-6.49 10.52,-15.43 10.52,-25.25 0,-9.81 -4.03,-18.75 -10.52,-25.25 -6.5,-6.49 -15.44,-10.53 -25.26,-10.53l-69.55 0 0 -47.28z"/>
   <path class="fil2" d="M227.28 212.06c10.71,0 19.39,8.68 19.39,19.39 0,10.71 -8.68,19.39 -19.39,19.39 -10.71,0 -19.39,-8.68 -19.39,-19.39 0,-10.71 8.68,-19.39 19.39,-19.39z"/>
  </g>
  <g id="_1081089488">
   <circle class="fil1 str1" cx="378.33" cy="542.96" r="11.55"/>
   <line class="fil1 str2" x1="366.78" y1="542.96" x2="344.77" y2= "542.96" />
   <line class="fil1 str2" x1="343.27" y1="513.2" x2="343.27" y2= "542.96" />
   <path class="fil1 str2" d="M324.16 536.15c0,0 -7.41,26.23 -26.09,28.35"/>
   <line class="fil1 str1" x1="202.21" y1="553.53" x2="268.86" y2= "553.53" />
   <path class="fil3" d="M279.21 519.79c0,-3.26 2.65,-5.91 5.91,-5.91 3.26,0 5.91,2.65 5.91,5.91l0 17.48 -11.82 0 0 -17.48z"/>
   <path class="fil3" d="M180.04 537.27c0,6.12 2.48,11.66 6.49,15.67l0.01 -0.01c4.02,4.02 9.57,6.51 15.67,6.51l0 -11.82c-2.88,0 -5.46,-1.15 -7.32,-3.01l0 -0.02c-1.88,-1.87 -3.03,-4.46 -3.03,-7.32l-11.82 0z"/>
   <path class="fil3" d="M291.03 537.27c0,6.12 -2.48,11.66 -6.49,15.67l-0.02 -0.01c-4.02,4.02 -9.56,6.51 -15.66,6.51l0 -11.82c2.87,0 5.46,-1.15 7.32,-3.01l0 -0.02c1.87,-1.87 3.03,-4.46 3.03,-7.32l11.82 0z"/>
   <path class="fil3" d="M180.04 537.27c0,-3.27 2.64,-5.91 5.91,-5.91 3.26,0 5.91,2.64 5.91,5.91l-11.82 0z"/>
   <line class="fil1 str2" x1="343.27" y1="496.81" x2="285.12" y2= "496.81" />
  </g>
  <line class="fil1 str3" x1="279.21" y1="537.27" x2="291.03" y2= "537.27" />
  <line class="fil1 str3" x1="268.86" y1="547.62" x2="268.86" y2= "559.44" />
  <line class="fil1 str3" x1="202.21" y1="547.62" x2="202.21" y2= "559.44" />
  <line class="fil1 str3" x1="180.04" y1="537.27" x2="191.86" y2= "537.27" />
  <line class="fil1 str4" x1="56.42" y1="324.8" x2="9.14" y2= "324.8" />
  <line class="fil1 str4" x1="288.73" y1="324.8" x2="336.01" y2= "324.8" />
  <line class="fil1 str4" x1="274.53" y1="310.6" x2="274.53" y2= "263.32" />
  <line class="fil1 str4" x1="175.14" y1="263.32" x2="175.14" y2= "310.6" />
  <line class="fil1 str4" x1="173.46" y1="202.47" x2="173.46" y2= "155.18" />
  <line class="fil1 str4" x1="173.46" y1="36.35" x2="173.46" y2= "83.63" />
  <line class="fil1 str4" x1="420.79" y1="95.77" x2="420.79" y2= "143.05" />
  <line class="fil1 str4" x1="420.79" y1="249.34" x2="420.79" y2= "296.62" />
  <line class="fil1 str4" x1="420.79" y1="402.9" x2="420.79" y2= "450.18" />
  <line class="fil1 str4" x1="420.79" y1="95.77" x2="420.79" y2= "143.05" />
 </g>
</svg>
