<?xml version="1.0" encoding="UTF-8"?>
<!DOCTYPE svg PUBLIC "-//W3C//DTD SVG 1.1//EN" "http://www.w3.org/Graphics/SVG/1.1/DTD/svg11.dtd">
<!-- Creator: CorelDRAW 2020 (64-Bit) -->
<svg xmlns="http://www.w3.org/2000/svg" xml:space="preserve" width="591px" height="591px" version="1.1" style="shape-rendering:geometricPrecision; text-rendering:geometricPrecision; image-rendering:optimizeQuality; fill-rule:evenodd; clip-rule:evenodd"
viewBox="0 0 591 591"
 xmlns:xlink="http://www.w3.org/1999/xlink"
 xmlns:xodm="http://www.corel.com/coreldraw/odm/2003">
 <defs>
  <style type="text/css">
   <![CDATA[
    .str0 {stroke:#373435;stroke-width:2.09;stroke-miterlimit:2.61313}
    .fil0 {fill:none}
    .fil2 {fill:#373435}
    .fil1 {fill:#373435;fill-rule:nonzero}
    .fil3 {fill:#373435;fill-rule:nonzero}
   ]]>
  </style>
 </defs>
 <g id="Layer_x0020_1">
  <metadata id="CorelCorpID_0Corel-Layer"/>
  <circle class="fil0 str0" cx="294.78" cy="296.22" r="281.6"/>
  <path class="fil1" d="M208.87 223.5c0,38.27 -18.96,67.03 -56.49,77.57 -17.15,4.84 -35.7,4.13 -53.38,4.13l0 -17.85c11.39,0 22.72,0.18 34.08,-0.83 36.49,-3.51 56.2,-26.1 56.2,-63.02 0,-28.36 -11.86,-49.61 -39.79,-58.35 -11.42,-3.64 -24.94,-4.01 -36.86,-4.01l-13.63 0 0 -17.85c17.43,0 36.91,-0.78 53.71,4.13 37.23,10.41 56.16,37.94 56.16,76.08zm35.17 81.7l0 -161.91 19.83 0 0 161.91 -19.83 0zm166.78 -65.46l0 0 0 -17.85 19.84 0 0 78.31c-5.1,2.61 -13,4.23 -18.64,5.33 -41.56,7.82 -90.74,0.07 -107.44,-44.47 -3.72,-9.91 -5.58,-20.99 -5.58,-33.18 0,-36.85 16.21,-68.03 51.74,-81.57 17.94,-6.87 38.06,-7.53 56.94,-4.63 5.22,0.87 10.99,2.07 15.87,4.13l0 17.32c-4.83,-1.53 -10.41,-2.86 -16.69,-3.89 -33.86,-5.53 -67.79,3.38 -82.57,36.49 -3.8,8.51 -5.7,18.51 -5.7,29.96 0,18.17 4.29,36.48 18.06,49.26 16.23,14.95 41.05,17.17 62.11,14.88 4.54,-0.46 8.55,-1.16 12.06,-2.03l0 -48.06zm-10.55 0l-26.39 0 0 -17.85 26.39 0 0 17.85zm70.31 65.46l0 -161.91 19.83 0 0 161.91 -19.83 0z"/>
  <g id="_837299936">
   <g>
    <path class="fil2" d="M234.84 356.04l-20.73 26.64c-0.39,0.39 -0.76,0.81 -1.12,1.28 -2.57,3.31 -10.16,12.61 -16.41,20.85 -3.35,-4.35 -6.79,-8.75 -9.92,-12.67l48.18 -61.92 0 25.82z"/>
    <polygon class="fil2" points="140.1,328.19 140.1,452.83 155.96,452.83 155.96,328.19 "/>
    <path class="fil2" d="M151.92 328.19l-9.66 7.52 35.92 46.17c4.26,4.8 11.49,13.96 18.4,22.93 3.2,-4.22 6.74,-8.71 9.79,-12.53l-49.87 -64.09 -4.58 0z"/>
   </g>
   <g>
    <polygon class="fil2" points="262.44,350.21 221.78,452.65 204.72,452.65 253.85,328.89 "/>
    <polygon class="fil2" points="277.41,404.27 236.09,404.27 236.09,388.41 277.41,388.41 "/>
   </g>
   <g>
    <path class="fil3" d="M286.88 328.2l23.64 0c10.44,0 19.94,4.28 26.84,11.18l0.02 -0.02c6.88,6.89 11.16,16.4 11.16,26.87 0,10.42 -4.28,19.93 -11.16,26.83l-0.03 0.03c-6.9,6.88 -16.41,11.16 -26.83,11.16l-23.64 0 0 -15.86 23.64 0c6.1,0 11.64,-2.48 15.65,-6.48l0.03 -0.04c4,-4 6.48,-9.54 6.48,-15.64 0,-6.09 -2.49,-11.64 -6.51,-15.66l0 -0.03c-4.01,-4 -9.55,-6.48 -15.65,-6.48l-23.64 0 0 -15.86z"/>
    <polygon class="fil2" points="303.88,399.14 316.27,389.25 366.77,452.5 346.48,452.5 "/>
   </g>
   <g>
    <rect class="fil2" x="368.59" y="328.19" width="15.86" height="124.46"/>
    <polygon class="fil2" points="454.8,329.05 381.23,406.07 369.76,395.12 432.87,329.05 "/>
    <polygon class="fil2" points="469.85,451.91 401.79,380.64 390.32,391.6 447.92,451.91 "/>
   </g>
  </g>
 </g>
</svg>
