<?xml version="1.0" encoding="UTF-8"?>
<!DOCTYPE svg PUBLIC "-//W3C//DTD SVG 1.1//EN" "http://www.w3.org/Graphics/SVG/1.1/DTD/svg11.dtd">
<!-- Creator: CorelDRAW 2020 (64-Bit) -->
<svg xmlns="http://www.w3.org/2000/svg" xml:space="preserve" width="3000px" height="3000px" version="1.1" style="shape-rendering:geometricPrecision; text-rendering:geometricPrecision; image-rendering:optimizeQuality; fill-rule:evenodd; clip-rule:evenodd"
viewBox="0 0 3000 3000"
 xmlns:xlink="http://www.w3.org/1999/xlink"
 xmlns:xodm="http://www.corel.com/coreldraw/odm/2003">
 <defs>
  <style type="text/css">
   <![CDATA[
    .fil0 {fill:black;fill-rule:nonzero}
   ]]>
  </style>
 </defs>
 <g id="Layer_x0020_1">
  <metadata id="CorelCorpID_0Corel-Layer"/>
  <path class="fil0" d="M810.17 2205.23l-36.24 0c-94.67,0 -166.7,-28.34 -216.12,-85.2 -49.3,-56.74 -74.11,-137.95 -74.11,-243.71l0 -352.57 195.02 0 0 353.38c0,44.36 7.7,75.86 23.26,94.4 15.54,18.52 40.3,27.59 74.11,27.59l34.08 0c5.95,0 10.55,11.09 14.34,33.27 3.78,22.18 5.68,43.55 5.68,64.37l0 8.66c0,21.64 -1.76,43.57 -5.14,66 -3.38,22.47 -8.39,33.81 -14.88,33.81zm-9.46 -206.11l80.06 0c21.64,0 38.38,-1.75 50.04,-5.14 11.6,-3.37 18.73,-7.27 21.37,-11.36 2.76,-4.28 4.41,-10 4.87,-17.58 1.42,-23.25 2.16,-52.75 2.16,-88.72 0,-108.74 25.56,-192.44 76.55,-250.47 50.97,-58.01 123.07,-87.1 215.85,-87.1 98.45,0 172.83,28.96 223.15,86.29 50.56,57.62 75.73,142 75.73,252.9 0,106.3 -25.89,189.14 -77.63,248.85 -51.85,59.84 -125.5,89.53 -221.25,89.53 -80.61,0 -146.88,-21.64 -198,-64.92 -41.11,35.98 -98.19,53.83 -171.22,53.83l-81.68 0c-6.22,0 -11.23,-11.34 -14.61,-33.81 -3.38,-22.43 -5.14,-44.36 -5.14,-66l0 -8.66c0,-20.82 2.03,-42.17 5.68,-64.37 3.65,-22.15 8.39,-33.27 14.07,-33.27zm378.95 -16.23c16.31,21.3 40.84,32.19 73.57,32.19 32.73,0 57.43,-10.75 73.84,-32.19 16.31,-21.3 24.62,-57.34 24.62,-108.19 0,-48.42 -7.87,-82.49 -23.54,-102.25 -15.43,-19.46 -40.84,-29.21 -75.73,-29.21 -33.81,0 -58.58,9.62 -74.12,29.21 -15.56,19.63 -23.26,53.83 -23.26,102.25 0,50.85 8.21,86.76 24.62,108.19zm1148.21 222.34l-80.88 0c-7.3,116.31 -53.67,206.77 -139.03,272.11 -85.31,65.3 -201.78,97.92 -349.73,97.92l-58.7 0 -31.65 0 0 -202.87 31.65 0 53.83 0c180.68,0 278.87,-55.72 294.01,-167.16l-94.12 0c-99.54,0 -175.42,-25.83 -228.29,-77.36 -52.89,-51.52 -79.26,-125.77 -79.26,-222.88 0,-47.6 6.66,-91.64 19.48,-131.99 12.87,-40.52 31.77,-76.13 56.8,-107.12 25.01,-30.95 57.32,-54.97 96.83,-72.49 39.19,-17.37 83.85,-25.96 133.62,-25.96 92.24,0 164.59,30.15 216.93,90.34 52.33,60.17 78.44,140.12 78.44,239.92l0 101.43 80.07 0c5.95,0 10.55,11.09 14.33,33.27 3.79,22.18 5.68,43.55 5.68,64.37l0 8.66c0,21.64 -2.02,43.53 -5.41,66 -3.37,22.43 -8.11,33.81 -14.6,33.81zm-486.6 -303.48c0,34.89 8.37,59.78 25.15,74.92 16.49,14.88 45.17,22.45 86.01,22.45l98.19 0 0 -102.24c0,-86.56 -33.81,-129.84 -101.43,-129.84 -71.95,0 -107.92,44.91 -107.92,134.71zm478.75 97.37l224.51 0c49.49,0 83.18,-7.99 101.16,-23.8 17.99,-15.83 27.05,-48.15 27.05,-97.38l0 -232.88 0 -31.92 201.24 0 0 31.92 0 233.7c0,105.75 -28.13,186.36 -84.39,242.35 -56.26,55.99 -137.69,84.12 -244.52,84.12l-225.05 0c-6.21,0 -11.22,-11.34 -14.6,-33.81 -3.38,-22.43 -5.14,-44.36 -5.14,-66l0 -8.66c0,-20.82 2.02,-42.17 5.68,-64.37 3.64,-22.15 8.38,-33.27 14.06,-33.27zm317.01 -638.61l133.08 -133.9 133.89 133.9c-3.25,3.24 -6.23,7 -9.47,10.27 -41.08,41.59 -83.08,82.27 -124.42,123.62l-133.08 -133.89zm-286.98 0l133.89 -133.9 133.08 133.9 -133.08 133.89 -133.89 -133.89z"/>
  <path class="fil0" d="M469.58 733.16l136.32 -136.32 136.33 136.32 -136.33 136.33 -136.32 -136.33zm666.2 19.21l0 458.74c-3.24,141.19 -47.87,247.77 -133.89,320.26 -86.01,72.49 -208.54,108.46 -367.58,108.46l-40.58 0c-163.1,0 -287.52,-39.49 -373.27,-118.47 -85.47,-78.98 -128.21,-195.29 -128.21,-348.93l0 -270.21 0 -31.65 31.65 0 137.95 0 31.64 0 0 31.65 0 269.4c0,89.8 24.08,156.07 72.49,198.81 48.42,42.73 124.16,64.37 227.75,64.37l40.58 0c103.86,0 179.87,-18.12 227.2,-54.37 47.61,-36.24 71.41,-91.15 71.41,-165.26l0 -462.8 0 -31.65 31.65 0 139.57 0 31.64 0 0 31.65z"/>
 </g>
</svg>
