<?xml version="1.0" encoding="UTF-8"?>
<!DOCTYPE svg PUBLIC "-//W3C//DTD SVG 1.1//EN" "http://www.w3.org/Graphics/SVG/1.1/DTD/svg11.dtd">
<!-- Creator: CorelDRAW 2020 (64-Bit) -->
<svg xmlns="http://www.w3.org/2000/svg" xml:space="preserve" width="3000px" height="3000px" version="1.1" style="shape-rendering:geometricPrecision; text-rendering:geometricPrecision; image-rendering:optimizeQuality; fill-rule:evenodd; clip-rule:evenodd"
viewBox="0 0 3000 3000"
 xmlns:xlink="http://www.w3.org/1999/xlink"
 xmlns:xodm="http://www.corel.com/coreldraw/odm/2003">
 <defs>
  <style type="text/css">
   <![CDATA[
    .fil0 {fill:black;fill-rule:nonzero}
   ]]>
  </style>
 </defs>
 <g id="Layer_x0020_1">
  <metadata id="CorelCorpID_0Corel-Layer"/>
  <path class="fil0" d="M699.91 2403.38l-36.25 0c-94.66,0 -166.7,-28.34 -216.11,-85.21 -49.31,-56.73 -74.12,-137.94 -74.12,-243.7l0 -879.13 195.02 -1.57 0 881.51c0,44.35 7.7,75.86 23.27,94.4 15.54,18.51 40.3,27.59 74.11,27.59l34.08 0c5.95,0 10.55,11.09 14.33,33.27 3.79,22.18 5.69,43.55 5.69,64.37l0 8.66c0,21.63 -1.77,43.57 -5.14,66 -3.38,22.47 -8.39,33.81 -14.88,33.81zm-9.47 -206.11l80.07 0c21.64,0 38.37,-1.75 50.03,-5.14 11.6,-3.37 18.73,-7.27 21.37,-11.36 2.77,-4.29 4.41,-10.01 4.87,-17.58 1.43,-23.26 2.17,-52.75 2.17,-88.72 0,-108.74 25.55,-192.45 76.54,-250.47 50.98,-58.01 123.08,-87.1 215.85,-87.1 98.46,0 172.83,28.95 223.15,86.29 50.57,57.62 75.74,142 75.74,252.9 0,106.3 -25.89,189.14 -77.63,248.85 -51.86,59.84 -125.51,89.53 -221.26,89.53 -80.6,0 -146.87,-21.64 -197.99,-64.92 -41.12,35.98 -98.19,53.83 -171.22,53.83l-81.69 0c-6.21,0 -11.22,-11.34 -14.6,-33.81 -3.38,-22.43 -5.14,-44.36 -5.14,-66l0 -8.66c0,-20.82 2.03,-42.17 5.68,-64.37 3.64,-22.16 8.38,-33.27 14.06,-33.27zm378.95 -16.23c16.31,21.3 40.85,32.19 73.58,32.19 32.72,0 57.42,-10.76 73.84,-32.19 16.31,-21.3 24.61,-57.34 24.61,-108.2 0,-48.41 -7.86,-82.48 -23.53,-102.24 -15.43,-19.46 -40.84,-29.21 -75.74,-29.21 -33.81,0 -58.57,9.62 -74.11,29.21 -15.57,19.62 -23.26,53.83 -23.26,102.24 0,50.86 8.2,86.77 24.61,108.2z"/>
  <path class="fil0" d="M747.65 769.65l136.32 -136.33 136.33 136.33 -136.33 136.32 -136.32 -136.32zm666.21 19.2l0 458.75c-3.25,141.19 -47.88,247.76 -133.89,320.25 -86.02,72.49 -208.55,108.46 -367.59,108.46l-40.58 0c-163.1,0 -287.52,-39.48 -373.27,-118.47 -85.47,-78.98 -128.21,-195.29 -128.21,-348.92l0 -270.22 0 -31.65 31.65 0 137.95 0 31.64 0 0 31.65 0 269.41c0,89.8 24.08,156.06 72.49,198.8 48.42,42.74 124.16,64.38 227.75,64.38l40.58 0c103.86,0 179.87,-18.13 227.2,-54.37 47.61,-36.24 71.41,-91.15 71.41,-165.27l0 -462.8 0 -31.64 31.65 0 139.57 0 31.65 0 0 31.64z"/>
  <path class="fil0" d="M2162.69 1932.24l-80.88 0c-7.3,116.31 -53.67,206.77 -139.03,272.1 -85.31,65.31 -201.78,97.92 -349.73,97.92l-58.7 0 -31.65 0 0 -202.86 31.65 0 53.83 0c180.68,0 278.87,-55.72 294.02,-167.16l-94.13 0c-99.54,0 -175.42,-25.84 -228.29,-77.36 -52.88,-51.53 -79.26,-125.78 -79.26,-222.88 0,-47.61 6.66,-91.65 19.48,-132 12.87,-40.52 31.77,-76.13 56.8,-107.11 25.01,-30.95 57.32,-54.98 96.83,-72.49 39.2,-17.37 83.86,-25.97 133.62,-25.97 92.24,0 164.59,30.16 216.93,90.34 52.33,60.17 78.44,140.12 78.44,239.92l0 101.44 80.07 0c5.95,0 10.55,11.09 14.33,33.26 3.79,22.18 5.68,43.56 5.68,64.38l0 8.66c0,21.63 -2.02,43.53 -5.4,65.99 -3.38,22.43 -8.12,33.82 -14.61,33.82zm-486.6 -303.49c0,34.89 8.38,59.79 25.15,74.93 16.49,14.88 45.17,22.45 86.01,22.45l98.19 0 0 -102.25c0,-86.55 -33.81,-129.83 -101.43,-129.83 -71.95,0 -107.92,44.9 -107.92,134.7zm478.75 97.38l224.51 0c49.49,0 83.18,-8 101.16,-23.81 17.99,-15.83 27.05,-48.14 27.05,-97.37l0 -232.89 0 -31.92 201.24 0 0 31.92 0 233.7c0,105.76 -28.13,186.37 -84.39,242.36 -56.26,55.98 -137.69,84.12 -244.52,84.12l-225.05 0c-6.21,0 -11.22,-11.35 -14.6,-33.82 -3.38,-22.42 -5.14,-44.35 -5.14,-65.99l0 -8.66c0,-20.83 2.03,-42.17 5.68,-64.38 3.64,-22.15 8.38,-33.26 14.06,-33.26zm317.01 -638.62l133.08 -133.89 133.89 133.89c-3.24,3.25 -6.23,7 -9.46,10.28 -41.09,41.59 -83.09,82.27 -124.43,123.61l-133.08 -133.89zm-286.98 0l133.89 -133.89 133.08 133.89 -133.08 133.89 -133.89 -133.89z"/>
 </g>
</svg>
